<svg xmlns="http://www.w3.org/2000/svg" xmlns:xlink="http://www.w3.org/1999/xlink" width="500" zoomAndPan="magnify" viewBox="0 0 375 374.999991" height="500" preserveAspectRatio="xMidYMid meet" version="1.0"><defs><g/><clipPath id="e614cfed88"><path d="M 65.875 123.109375 L 302.605469 123.109375 L 302.605469 253.609375 L 65.875 253.609375 Z M 65.875 123.109375 " clip-rule="nonzero"/></clipPath></defs><g fill="#000000" fill-opacity="1"><g transform="translate(184.185871, 196.392642)"><g><path d="M 3.964844 0 L 6.34375 0 L 19.292969 -37.664062 L 56.957031 -37.664062 L 71.625 0 L 85.105469 0 L 49.292969 -92.109375 L 35.679688 -92.109375 Z M 37.003906 -89.203125 L 56.164062 -39.910156 L 20.085938 -39.910156 Z M 37.003906 -89.203125 "/></g></g></g><g fill="#000000" fill-opacity="1"><g transform="translate(93.58932, 222.992088)"><g><path d="M 5.710938 0 L 39.292969 0 C 62.9375 0 82.128906 -15.421875 82.128906 -39.980469 C 82.128906 -67.507812 65.109375 -81.558594 41.464844 -81.558594 C 22.617188 -81.558594 17.132812 -64.539062 16.5625 -61.109375 L 16.5625 -79.613281 L 5.710938 -79.613281 Z M 16.5625 -1.941406 L 16.5625 -47.519531 C 16.5625 -66.480469 26.273438 -79.730469 41.464844 -79.730469 C 58.597656 -79.730469 71.046875 -65.792969 71.046875 -39.980469 C 71.046875 -16.792969 57.226562 -1.941406 40.09375 -1.941406 Z M 16.5625 -1.941406 "/></g></g></g><g clip-path="url(#e614cfed88)"><path fill="#000000" d="M 261.402344 195.050781 C 262.847656 195.472656 264.335938 195.792969 265.851562 196.007812 C 267.347656 196.222656 268.867188 196.332031 270.40625 196.332031 C 279.285156 196.332031 287.324219 192.730469 293.140625 186.910156 C 298.960938 181.085938 302.558594 173.042969 302.558594 164.160156 C 302.558594 155.277344 298.960938 147.230469 293.140625 141.410156 C 287.324219 135.589844 279.285156 131.988281 270.40625 131.988281 C 265.472656 131.988281 260.792969 133.101562 256.609375 135.09375 C 252.269531 137.160156 248.460938 140.175781 245.457031 143.867188 C 236.359375 154.898438 228.945312 166.472656 221.542969 178.039062 C 206.28125 201.875 191.039062 225.675781 161.253906 244.265625 C 158.53125 245.75 155.691406 247.042969 152.746094 248.121094 C 145.925781 250.621094 138.558594 251.988281 130.867188 251.988281 C 113.304688 251.988281 97.40625 244.867188 85.902344 233.351562 C 74.394531 221.839844 67.277344 205.929688 67.277344 188.363281 C 67.277344 170.792969 74.394531 154.882812 85.902344 143.371094 C 96.785156 132.480469 111.597656 125.519531 128.03125 124.800781 C 126.738281 125.734375 125.898438 127.257812 125.898438 128.976562 C 125.898438 131.820312 128.203125 134.128906 131.046875 134.128906 C 133.890625 134.128906 136.195312 131.820312 136.195312 128.976562 C 136.195312 126.5 134.445312 124.429688 132.117188 123.9375 L 132.132812 123.128906 L 130.871094 123.113281 C 112.863281 123.113281 96.558594 130.417969 84.757812 142.222656 C 72.953125 154.03125 65.65625 170.34375 65.65625 188.363281 C 65.65625 206.382812 72.953125 222.695312 84.757812 234.503906 C 96.558594 246.3125 112.859375 253.617188 130.871094 253.617188 C 138.75 253.617188 146.308594 252.214844 153.308594 249.648438 C 160.5625 246.988281 167.210938 243.078125 172.996094 238.175781 C 196.144531 220.714844 209.515625 199.832031 222.90625 178.921875 C 230.292969 167.386719 237.683594 155.839844 246.710938 144.898438 L 246.085938 144.382812 L 246.714844 144.894531 C 249.566406 141.390625 253.179688 138.527344 257.304688 136.566406 C 261.273438 134.675781 265.71875 133.617188 270.410156 133.617188 C 278.839844 133.617188 286.472656 137.035156 292 142.566406 C 297.523438 148.09375 300.941406 155.730469 300.941406 164.167969 C 300.941406 172.601562 297.523438 180.242188 292 185.769531 C 286.472656 191.296875 278.839844 194.714844 270.410156 194.714844 C 268.929688 194.714844 267.484375 194.613281 266.078125 194.414062 C 264.632812 194.207031 263.222656 193.902344 261.859375 193.503906 L 261.410156 195.058594 Z M 261.402344 195.050781 " fill-opacity="1" fill-rule="nonzero"/></g><g fill="#000000" fill-opacity="1"><g transform="translate(204.233237, 224.790381)"><g><path d="M 5.648438 2.242188 L 1.316406 -8.371094 L 0.480469 -8.371094 L 4.820312 2.242188 Z M 5.648438 2.242188 "/></g></g></g><g fill="#000000" fill-opacity="1"><g transform="translate(218.181781, 224.790381)"><g><path d="M 6.730469 -3.792969 C 6.730469 -4.339844 6.617188 -4.84375 6.417969 -5.3125 C 6.214844 -5.78125 5.9375 -6.183594 5.589844 -6.515625 C 5.234375 -6.851562 4.820312 -7.109375 4.351562 -7.296875 C 3.871094 -7.488281 3.359375 -7.589844 2.824219 -7.589844 L 0.835938 -7.589844 L 0.835938 0 L 2.824219 0 C 3.359375 0 3.871094 -0.0898438 4.351562 -0.277344 C 4.820312 -0.46875 5.234375 -0.738281 5.589844 -1.070312 C 5.9375 -1.40625 6.214844 -1.796875 6.417969 -2.265625 C 6.617188 -2.734375 6.730469 -3.238281 6.730469 -3.792969 Z M 5.96875 -3.792969 C 5.96875 -2.925781 5.65625 -2.199219 5.054688 -1.628906 C 4.453125 -1.058594 3.714844 -0.78125 2.847656 -0.78125 L 1.617188 -0.78125 L 1.617188 -6.808594 L 2.847656 -6.808594 C 3.714844 -6.808594 4.453125 -6.515625 5.054688 -5.960938 C 5.65625 -5.378906 5.96875 -4.652344 5.96875 -3.792969 Z M 5.96875 -3.792969 "/></g></g></g><g fill="#000000" fill-opacity="1"><g transform="translate(233.357508, 224.790381)"><g><path d="M 2.066406 -2.789062 L 3.449219 -6.28125 L 4.820312 -2.789062 Z M 6.773438 0 L 3.449219 -8.113281 L 0.113281 0 L 0.960938 0 L 1.773438 -2.066406 L 5.109375 -2.066406 L 5.925781 0 Z M 6.773438 0 "/></g></g></g><g fill="#000000" fill-opacity="1"><g transform="translate(248.187393, 224.790381)"><g><path d="M 2.933594 -3.570312 C 3.917969 -3.335938 4.585938 -3.082031 4.945312 -2.789062 C 5.1875 -2.589844 5.3125 -2.332031 5.3125 -2.019531 C 5.3125 -1.707031 5.246094 -1.449219 5.109375 -1.273438 C 4.777344 -0.804688 4.175781 -0.570312 3.324219 -0.570312 C 2.144531 -0.570312 1.472656 -0.972656 1.328125 -1.773438 L 0.414062 -1.773438 C 0.679688 -0.492188 1.652344 0.144531 3.324219 0.144531 C 4.074219 0.144531 4.699219 -0.0117188 5.199219 -0.347656 C 5.804688 -0.738281 6.117188 -1.316406 6.117188 -2.074219 C 6.117188 -2.699219 5.871094 -3.179688 5.378906 -3.515625 C 5.03125 -3.761719 4.476562 -3.984375 3.707031 -4.183594 C 2.925781 -4.386719 2.421875 -4.554688 2.1875 -4.675781 C 1.675781 -4.933594 1.417969 -5.289062 1.429688 -5.757812 C 1.429688 -6.003906 1.472656 -6.214844 1.585938 -6.371094 C 1.875 -6.808594 2.386719 -7.03125 3.125 -7.03125 C 4.164062 -7.03125 4.753906 -6.695312 4.910156 -6.046875 L 5.757812 -6.046875 C 5.480469 -7.140625 4.597656 -7.699219 3.125 -7.699219 C 2.457031 -7.699219 1.863281 -7.523438 1.371094 -7.164062 C 0.871094 -6.808594 0.613281 -6.28125 0.613281 -5.570312 C 0.613281 -4.597656 1.394531 -3.929688 2.933594 -3.570312 Z M 2.933594 -3.570312 "/></g></g></g><g fill="#000000" fill-opacity="1"><g transform="translate(204.233237, 239.79038)"><g><path d="M 5.648438 2.242188 L 1.316406 -8.371094 L 0.480469 -8.371094 L 4.820312 2.242188 Z M 5.648438 2.242188 "/></g></g></g><g fill="#000000" fill-opacity="1"><g transform="translate(218.181781, 239.79038)"><g><path d="M 2.066406 -2.789062 L 3.449219 -6.28125 L 4.820312 -2.789062 Z M 6.773438 0 L 3.449219 -8.113281 L 0.113281 0 L 0.960938 0 L 1.773438 -2.066406 L 5.109375 -2.066406 L 5.925781 0 Z M 6.773438 0 "/></g></g></g><g fill="#000000" fill-opacity="1"><g transform="translate(233.011668, 239.79038)"><g><path d="M 1.617188 -5.589844 L 5.882812 0.46875 L 5.882812 -7.589844 L 5.101562 -7.589844 L 5.101562 -2.007812 L 0.835938 -8.070312 L 0.835938 0 L 1.617188 0 Z M 1.617188 -5.589844 "/></g></g></g><g fill="#000000" fill-opacity="1"><g transform="translate(247.674207, 239.79038)"><g><path d="M 6.328125 -2.511719 L 6.328125 -7.589844 L 5.546875 -7.589844 L 5.546875 -2.398438 C 5.546875 -2.085938 5.492188 -1.832031 5.378906 -1.617188 C 5.054688 -0.992188 4.429688 -0.679688 3.503906 -0.679688 C 2.902344 -0.679688 2.421875 -0.816406 2.066406 -1.082031 C 1.652344 -1.382812 1.449219 -1.820312 1.449219 -2.398438 L 1.449219 -7.589844 L 0.667969 -7.589844 L 0.667969 -2.511719 C 0.667969 -1.683594 0.9375 -1.039062 1.472656 -0.570312 C 1.976562 -0.121094 2.65625 0.101562 3.503906 0.101562 C 4.339844 0.101562 5.011719 -0.121094 5.523438 -0.570312 C 6.058594 -1.039062 6.328125 -1.683594 6.328125 -2.511719 Z M 6.328125 -2.511719 "/></g></g></g><g fill="#000000" fill-opacity="1"><g transform="translate(262.615652, 239.79038)"><g><path d="M 1.617188 -3.75 L 1.617188 -6.839844 L 3.382812 -6.839844 C 3.839844 -6.839844 4.207031 -6.695312 4.484375 -6.40625 C 4.753906 -6.117188 4.898438 -5.757812 4.898438 -5.3125 C 4.898438 -4.867188 4.753906 -4.496094 4.464844 -4.195312 C 4.175781 -3.894531 3.816406 -3.75 3.382812 -3.75 Z M 5.679688 -5.300781 C 5.679688 -5.949219 5.433594 -6.507812 4.964844 -6.941406 C 4.507812 -7.367188 3.941406 -7.589844 3.269531 -7.589844 L 0.835938 -7.589844 L 0.835938 0 L 1.617188 0 L 1.617188 -3.003906 L 2.523438 -3.003906 L 4.753906 0 L 5.804688 0 L 3.460938 -3.003906 C 4.050781 -3.035156 4.554688 -3.246094 4.964844 -3.636719 C 5.433594 -4.074219 5.679688 -4.632812 5.679688 -5.300781 Z M 5.679688 -5.300781 "/></g></g></g><g fill="#000000" fill-opacity="1"><g transform="translate(276.631132, 239.79038)"><g><path d="M 2.066406 -2.789062 L 3.449219 -6.28125 L 4.820312 -2.789062 Z M 6.773438 0 L 3.449219 -8.113281 L 0.113281 0 L 0.960938 0 L 1.773438 -2.066406 L 5.109375 -2.066406 L 5.925781 0 Z M 6.773438 0 "/></g></g></g><g fill="#000000" fill-opacity="1"><g transform="translate(291.461021, 239.79038)"><g><path d="M 8.324219 -3.550781 L 4.375 -3.550781 L 4.375 -2.867188 L 7.453125 -2.867188 C 7.21875 -2.210938 6.828125 -1.675781 6.273438 -1.285156 C 5.714844 -0.882812 5.089844 -0.691406 4.40625 -0.691406 C 3.539062 -0.691406 2.800781 -0.992188 2.1875 -1.605469 C 1.585938 -2.222656 1.285156 -2.96875 1.285156 -3.828125 C 1.285156 -4.6875 1.585938 -5.421875 2.199219 -6.039062 C 2.800781 -6.640625 3.539062 -6.953125 4.40625 -6.953125 C 5.054688 -6.953125 5.648438 -6.761719 6.171875 -6.394531 C 6.707031 -6.027344 7.085938 -5.546875 7.332031 -4.933594 L 8.15625 -4.933594 C 7.902344 -5.769531 7.421875 -6.4375 6.730469 -6.953125 C 6.039062 -7.464844 5.234375 -7.734375 4.332031 -7.734375 C 3.839844 -7.734375 3.359375 -7.621094 2.890625 -7.421875 C 2.410156 -7.21875 1.996094 -6.941406 1.640625 -6.585938 C 1.285156 -6.226562 1.003906 -5.8125 0.804688 -5.34375 C 0.601562 -4.867188 0.503906 -4.351562 0.503906 -3.816406 C 0.503906 -3.28125 0.601562 -2.769531 0.804688 -2.300781 C 1.003906 -1.820312 1.285156 -1.40625 1.640625 -1.050781 C 1.996094 -0.691406 2.410156 -0.414062 2.890625 -0.210938 C 3.359375 -0.0117188 3.871094 0.0898438 4.40625 0.0898438 C 5.324219 0.0898438 6.148438 -0.199219 6.886719 -0.792969 C 7.621094 -1.394531 8.078125 -2.152344 8.246094 -3.082031 Z M 8.324219 -3.550781 "/></g></g></g></svg>