<svg xmlns="http://www.w3.org/2000/svg" xmlns:xlink="http://www.w3.org/1999/xlink" width="500" zoomAndPan="magnify" viewBox="0 0 375 374.999991" height="500" preserveAspectRatio="xMidYMid meet" version="1.0"><defs><g/><clipPath id="2603ca8844"><path d="M 92.742188 91.433594 L 158.742188 91.433594 L 158.742188 274.433594 L 92.742188 274.433594 Z M 92.742188 91.433594 " clip-rule="nonzero"/></clipPath><clipPath id="405ab49efd"><path d="M 216.445312 91.433594 L 282.257812 91.433594 L 282.257812 274.433594 L 216.445312 274.433594 Z M 216.445312 91.433594 " clip-rule="nonzero"/></clipPath></defs><g clip-path="url(#2603ca8844)"><path fill="#000000" d="M 92.757812 182.933594 C 92.757812 156.289062 103.589844 132.164062 121.101562 114.703125 C 131.554688 104.277344 144.390625 96.230469 158.726562 91.433594 L 158.726562 92.839844 C 144.761719 97.585938 132.253906 105.464844 122.046875 115.644531 C 104.777344 132.863281 94.09375 156.65625 94.09375 182.933594 C 94.09375 209.210938 104.777344 233.003906 122.046875 250.222656 C 132.253906 260.402344 144.761719 268.28125 158.726562 273.027344 L 158.726562 274.433594 C 144.394531 269.636719 131.558594 261.589844 121.101562 251.164062 C 103.589844 233.703125 92.757812 209.578125 92.757812 182.933594 Z M 92.757812 182.933594 " fill-opacity="1" fill-rule="evenodd"/></g><g clip-path="url(#405ab49efd)"><path fill="#000000" d="M 282.242188 182.933594 C 282.242188 156.289062 271.410156 132.164062 253.894531 114.703125 C 243.441406 104.277344 230.605469 96.230469 216.273438 91.433594 L 216.273438 92.839844 C 230.234375 97.585938 242.746094 105.464844 252.949219 115.644531 C 270.222656 132.863281 280.902344 156.65625 280.902344 182.933594 C 280.902344 209.210938 270.222656 233.003906 252.949219 250.222656 C 242.742188 260.402344 230.234375 268.28125 216.273438 273.027344 L 216.273438 274.433594 C 230.605469 269.636719 243.441406 261.589844 253.894531 251.164062 C 271.40625 233.703125 282.242188 209.578125 282.242188 182.933594 Z M 282.242188 182.933594 " fill-opacity="1" fill-rule="evenodd"/></g><g fill="#000000" fill-opacity="1"><g transform="translate(150.51381, 122.045825)"><g><path d="M 0.328125 -8.6875 C 1.347656 -9.226562 2.335938 -9.351562 3.296875 -9.0625 C 4.265625 -8.78125 5.007812 -8.140625 5.53125 -7.140625 C 6.050781 -6.140625 6.148438 -5.164062 5.828125 -4.21875 C 5.515625 -3.269531 4.847656 -2.523438 3.828125 -1.984375 L 0.578125 -0.296875 L 0.53125 -0.390625 L 0.65625 -0.46875 C 0.820312 -0.550781 0.929688 -0.679688 0.984375 -0.859375 C 1.035156 -1.035156 1.019531 -1.210938 0.9375 -1.390625 L -1.84375 -6.75 C -1.925781 -6.914062 -2.054688 -7.015625 -2.234375 -7.046875 C -2.410156 -7.078125 -2.578125 -7.054688 -2.734375 -6.984375 L -2.859375 -6.90625 L -2.921875 -7 Z M -1.40625 -7.453125 L 1.78125 -1.3125 L 3.671875 -2.28125 C 4.203125 -2.5625 4.609375 -2.9375 4.890625 -3.40625 C 5.179688 -3.875 5.320312 -4.394531 5.3125 -4.96875 C 5.300781 -5.550781 5.132812 -6.148438 4.8125 -6.765625 C 4.332031 -7.679688 3.691406 -8.289062 2.890625 -8.59375 C 2.097656 -8.90625 1.296875 -8.847656 0.484375 -8.421875 Z M -1.40625 -7.453125 "/></g></g></g><g fill="#000000" fill-opacity="1"><g transform="translate(165.716397, 115.233735)"><g><path d="M 0.734375 -0.3125 C 0.921875 -0.363281 1.054688 -0.472656 1.140625 -0.640625 C 1.234375 -0.804688 1.265625 -0.976562 1.234375 -1.15625 L -0.359375 -7 C -0.429688 -7.15625 -0.546875 -7.269531 -0.703125 -7.34375 C -0.859375 -7.425781 -1.023438 -7.441406 -1.203125 -7.390625 L -1.328125 -7.359375 L -1.34375 -7.46875 L 1.6875 -8.296875 C 1.914062 -8.359375 2.144531 -8.445312 2.375 -8.5625 C 2.613281 -8.675781 2.78125 -8.765625 2.875 -8.828125 L 3.234375 -7.53125 L 3.140625 -7.5 L 3.09375 -7.671875 C 3.039062 -7.847656 2.941406 -7.976562 2.796875 -8.0625 C 2.648438 -8.144531 2.492188 -8.171875 2.328125 -8.140625 L 0.203125 -7.5625 L 1.078125 -4.328125 L 2.84375 -4.8125 C 2.976562 -4.851562 3.082031 -4.9375 3.15625 -5.0625 C 3.226562 -5.1875 3.242188 -5.320312 3.203125 -5.46875 L 3.171875 -5.609375 L 3.28125 -5.640625 L 3.734375 -4 L 3.625 -3.96875 L 3.578125 -4.109375 C 3.535156 -4.253906 3.453125 -4.363281 3.328125 -4.4375 C 3.203125 -4.507812 3.070312 -4.53125 2.9375 -4.5 L 1.171875 -4.015625 L 2.015625 -0.890625 L 3.515625 -1.296875 C 4.023438 -1.429688 4.382812 -1.65625 4.59375 -1.96875 C 4.800781 -2.28125 4.9375 -2.679688 5 -3.171875 L 5.109375 -3.203125 L 4.953125 -1.359375 L 0.640625 -0.171875 L 0.609375 -0.28125 Z M 0.734375 -0.3125 "/></g></g></g><g fill="#000000" fill-opacity="1"><g transform="translate(179.660655, 112.271488)"><g><path d="M 0.625 -0.484375 C 0.59375 -0.585938 0.566406 -0.78125 0.546875 -1.0625 C 0.523438 -1.351562 0.554688 -1.671875 0.640625 -2.015625 L 0.734375 -2.015625 C 0.734375 -1.929688 0.738281 -1.847656 0.75 -1.765625 C 0.78125 -1.328125 0.9375 -0.972656 1.21875 -0.703125 C 1.507812 -0.429688 1.875 -0.3125 2.3125 -0.34375 C 2.757812 -0.382812 3.117188 -0.550781 3.390625 -0.84375 C 3.660156 -1.144531 3.78125 -1.5 3.75 -1.90625 C 3.71875 -2.320312 3.550781 -2.648438 3.25 -2.890625 L 1.046875 -4.640625 C 0.628906 -4.972656 0.398438 -5.394531 0.359375 -5.90625 C 0.328125 -6.414062 0.46875 -6.863281 0.78125 -7.25 C 1.09375 -7.644531 1.535156 -7.863281 2.109375 -7.90625 C 2.378906 -7.925781 2.691406 -7.914062 3.046875 -7.875 L 3.46875 -7.90625 L 3.5625 -6.578125 L 3.46875 -6.5625 C 3.445312 -6.90625 3.3125 -7.164062 3.0625 -7.34375 C 2.8125 -7.53125 2.503906 -7.609375 2.140625 -7.578125 C 1.773438 -7.554688 1.476562 -7.410156 1.25 -7.140625 C 1.019531 -6.878906 0.921875 -6.566406 0.953125 -6.203125 C 0.984375 -5.835938 1.148438 -5.53125 1.453125 -5.28125 L 3.71875 -3.484375 C 4.101562 -3.171875 4.316406 -2.726562 4.359375 -2.15625 C 4.398438 -1.59375 4.253906 -1.109375 3.921875 -0.703125 C 3.585938 -0.304688 3.117188 -0.0820312 2.515625 -0.03125 C 2.191406 -0.0078125 1.847656 -0.0351562 1.484375 -0.109375 C 1.117188 -0.179688 0.832031 -0.304688 0.625 -0.484375 Z M 0.625 -0.484375 "/></g></g></g><g fill="#000000" fill-opacity="1"><g transform="translate(192.837848, 111.996864)"><g><path d="M 0.703125 -0.375 C 0.691406 -0.476562 0.703125 -0.671875 0.734375 -0.953125 C 0.765625 -1.234375 0.851562 -1.535156 1 -1.859375 L 1.09375 -1.84375 C 1.070312 -1.757812 1.0625 -1.675781 1.0625 -1.59375 C 1.007812 -1.164062 1.097656 -0.789062 1.328125 -0.46875 C 1.554688 -0.15625 1.890625 0.0234375 2.328125 0.078125 C 2.785156 0.117188 3.175781 0.0195312 3.5 -0.21875 C 3.820312 -0.46875 4.003906 -0.796875 4.046875 -1.203125 C 4.085938 -1.609375 3.984375 -1.957031 3.734375 -2.25 L 1.875 -4.375 C 1.519531 -4.78125 1.367188 -5.238281 1.421875 -5.75 C 1.484375 -6.257812 1.703125 -6.675781 2.078125 -7 C 2.453125 -7.320312 2.929688 -7.453125 3.515625 -7.390625 C 3.785156 -7.359375 4.085938 -7.285156 4.421875 -7.171875 L 4.84375 -7.140625 L 4.71875 -5.828125 L 4.625 -5.828125 C 4.65625 -6.171875 4.5625 -6.453125 4.34375 -6.671875 C 4.132812 -6.890625 3.84375 -7.015625 3.46875 -7.046875 C 3.101562 -7.085938 2.785156 -7 2.515625 -6.78125 C 2.242188 -6.570312 2.085938 -6.285156 2.046875 -5.921875 C 2.015625 -5.554688 2.125 -5.226562 2.375 -4.9375 L 4.3125 -2.75 C 4.613281 -2.375 4.734375 -1.898438 4.671875 -1.328125 C 4.617188 -0.765625 4.390625 -0.316406 3.984375 0.015625 C 3.585938 0.347656 3.082031 0.484375 2.46875 0.421875 C 2.144531 0.390625 1.8125 0.300781 1.46875 0.15625 C 1.132812 0.0195312 0.878906 -0.15625 0.703125 -0.375 Z M 0.703125 -0.375 "/></g></g></g><g fill="#000000" fill-opacity="1"><g transform="translate(205.870687, 114.147995)"><g><path d="M 0.796875 0.109375 C 0.972656 0.160156 1.140625 0.140625 1.296875 0.046875 C 1.460938 -0.046875 1.578125 -0.179688 1.640625 -0.359375 L 3.296875 -6.125 C 3.335938 -6.3125 3.3125 -6.484375 3.21875 -6.640625 C 3.125 -6.796875 2.988281 -6.898438 2.8125 -6.953125 L 2.671875 -6.984375 L 2.703125 -7.078125 L 4.984375 -6.4375 L 4.953125 -6.34375 L 4.8125 -6.375 C 4.632812 -6.425781 4.460938 -6.410156 4.296875 -6.328125 C 4.140625 -6.242188 4.035156 -6.109375 3.984375 -5.921875 L 2.328125 -0.15625 C 2.273438 0.0195312 2.296875 0.191406 2.390625 0.359375 C 2.484375 0.523438 2.617188 0.632812 2.796875 0.6875 L 2.9375 0.71875 L 2.90625 0.828125 L 0.625 0.1875 L 0.65625 0.078125 Z M 0.796875 0.109375 "/></g></g></g><g fill="#000000" fill-opacity="1"><g transform="translate(216.927827, 117.858912)"><g><path d="M 10.890625 -2.765625 C 10.734375 -2.847656 10.566406 -2.859375 10.390625 -2.796875 C 10.210938 -2.742188 10.082031 -2.640625 10 -2.484375 L 7.4375 2.46875 C 7.25 2.832031 7.085938 3.191406 6.953125 3.546875 L 6.890625 3.75 L 6.796875 3.703125 L 4.46875 -4.609375 L 1.984375 0.171875 C 1.878906 0.410156 1.894531 0.628906 2.03125 0.828125 C 2.082031 0.921875 2.164062 1 2.28125 1.0625 L 2.46875 1.15625 L 2.421875 1.25 L 0.4375 0.21875 L 0.484375 0.125 L 0.65625 0.21875 C 0.820312 0.300781 0.988281 0.316406 1.15625 0.265625 C 1.332031 0.210938 1.46875 0.101562 1.5625 -0.0625 L 4.140625 -5.03125 C 4.335938 -5.425781 4.492188 -5.789062 4.609375 -6.125 L 4.671875 -6.296875 L 4.765625 -6.25 L 7.09375 2.046875 L 9.5625 -2.703125 C 9.644531 -2.867188 9.65625 -3.035156 9.59375 -3.203125 C 9.539062 -3.378906 9.429688 -3.507812 9.265625 -3.59375 L 9.078125 -3.6875 L 9.125 -3.78125 L 11.109375 -2.765625 L 11.0625 -2.671875 Z M 10.890625 -2.765625 "/></g></g></g><g fill="#000000" fill-opacity="1"><g transform="translate(137.701797, 254.466431)"><g><path d="M 5.265625 -4.40625 C 6.273438 -4.59375 7.253906 -4.359375 8.203125 -3.703125 C 9.160156 -3.046875 9.726562 -2.21875 9.90625 -1.21875 C 10.082031 -0.21875 9.832031 0.765625 9.15625 1.734375 C 8.488281 2.703125 7.65625 3.28125 6.65625 3.46875 C 5.65625 3.65625 4.675781 3.421875 3.71875 2.765625 C 2.769531 2.109375 2.203125 1.273438 2.015625 0.265625 C 1.835938 -0.734375 2.082031 -1.71875 2.75 -2.6875 C 3.425781 -3.65625 4.265625 -4.226562 5.265625 -4.40625 Z M 2.65625 0.421875 C 2.738281 1.285156 3.15625 1.976562 3.90625 2.5 C 4.664062 3.019531 5.460938 3.164062 6.296875 2.9375 C 7.140625 2.707031 7.875 2.148438 8.5 1.265625 C 8.90625 0.671875 9.15625 0.078125 9.25 -0.515625 C 9.351562 -1.109375 9.296875 -1.65625 9.078125 -2.15625 C 8.867188 -2.664062 8.515625 -3.09375 8.015625 -3.4375 C 7.265625 -3.957031 6.472656 -4.101562 5.640625 -3.875 C 4.804688 -3.65625 4.078125 -3.097656 3.453125 -2.203125 C 2.835938 -1.316406 2.570312 -0.441406 2.65625 0.421875 Z M 2.65625 0.421875 "/></g></g></g><g fill="#000000" fill-opacity="1"><g transform="translate(152.915865, 263.696427)"><g><path d="M 0.78125 0.21875 C 0.957031 0.289062 1.128906 0.285156 1.296875 0.203125 C 1.472656 0.128906 1.601562 0.0078125 1.6875 -0.15625 L 4.015625 -5.734375 C 4.066406 -5.910156 4.050781 -6.078125 3.96875 -6.234375 C 3.894531 -6.390625 3.773438 -6.5 3.609375 -6.5625 L 3.484375 -6.625 L 3.53125 -6.71875 L 6.4375 -5.5 C 6.644531 -5.40625 6.875 -5.332031 7.125 -5.28125 C 7.382812 -5.226562 7.582031 -5.195312 7.71875 -5.1875 L 7.1875 -3.9375 L 7.078125 -3.96875 L 7.15625 -4.140625 C 7.226562 -4.304688 7.226562 -4.46875 7.15625 -4.625 C 7.09375 -4.78125 6.988281 -4.894531 6.84375 -4.96875 L 4.8125 -5.828125 L 3.515625 -2.75 L 5.203125 -2.046875 C 5.347656 -1.992188 5.484375 -1.992188 5.609375 -2.046875 C 5.742188 -2.097656 5.84375 -2.195312 5.90625 -2.34375 L 5.953125 -2.46875 L 6.046875 -2.421875 L 5.390625 -0.859375 L 5.296875 -0.90625 L 5.359375 -1.046875 C 5.410156 -1.179688 5.410156 -1.3125 5.359375 -1.4375 C 5.304688 -1.570312 5.210938 -1.671875 5.078125 -1.734375 L 3.390625 -2.4375 L 2.140625 0.546875 L 3.5625 1.140625 C 4.0625 1.347656 4.484375 1.394531 4.828125 1.28125 C 5.179688 1.164062 5.535156 0.929688 5.890625 0.578125 L 5.984375 0.609375 L 4.734375 1.984375 L 0.609375 0.25 L 0.65625 0.15625 Z M 0.78125 0.21875 "/></g></g></g><g fill="#000000" fill-opacity="1"><g transform="translate(167.014725, 268.753528)"><g><path d="M 9.234375 -5.796875 L 9.0625 -5.828125 C 8.90625 -5.859375 8.765625 -5.835938 8.640625 -5.765625 C 8.523438 -5.703125 8.445312 -5.597656 8.40625 -5.453125 L 7.59375 -1.25 C 7.425781 -0.414062 7.023438 0.203125 6.390625 0.609375 C 5.765625 1.015625 5.019531 1.132812 4.15625 0.96875 C 3.289062 0.800781 2.632812 0.414062 2.1875 -0.1875 C 1.738281 -0.800781 1.59375 -1.523438 1.75 -2.359375 L 2.578125 -6.546875 C 2.617188 -6.753906 2.554688 -6.925781 2.390625 -7.0625 C 2.316406 -7.113281 2.226562 -7.148438 2.125 -7.171875 L 1.953125 -7.203125 L 1.96875 -7.3125 L 4.125 -6.90625 L 4.109375 -6.796875 L 3.9375 -6.828125 C 3.78125 -6.859375 3.640625 -6.835938 3.515625 -6.765625 C 3.398438 -6.703125 3.320312 -6.59375 3.28125 -6.4375 L 2.484375 -2.390625 C 2.335938 -1.609375 2.421875 -0.941406 2.734375 -0.390625 C 3.054688 0.160156 3.566406 0.503906 4.265625 0.640625 C 4.960938 0.773438 5.566406 0.660156 6.078125 0.296875 C 6.597656 -0.0664062 6.929688 -0.613281 7.078125 -1.34375 L 7.890625 -5.53125 C 7.921875 -5.6875 7.890625 -5.816406 7.796875 -5.921875 C 7.710938 -6.035156 7.59375 -6.109375 7.4375 -6.140625 L 7.265625 -6.171875 L 7.28125 -6.28125 L 9.25 -5.90625 Z M 9.234375 -5.796875 "/></g></g></g><g fill="#000000" fill-opacity="1"><g transform="translate(184.112069, 271.085134)"><g><path d="M 7.953125 -7.640625 L 7.859375 -7.640625 C 7.609375 -7.640625 7.382812 -7.539062 7.1875 -7.34375 C 7.070312 -7.238281 6.988281 -7.113281 6.9375 -6.96875 L 4.46875 -1.078125 C 4.207031 -0.484375 4.078125 -0.101562 4.078125 0.0625 L 3.984375 0.0625 L 0.796875 -6.796875 C 0.679688 -7.023438 0.535156 -7.191406 0.359375 -7.296875 C 0.179688 -7.398438 0.00390625 -7.453125 -0.171875 -7.453125 L -0.265625 -7.453125 L -0.28125 -7.5625 L 2.15625 -7.625 L 2.171875 -7.515625 L 2.078125 -7.5 C 1.859375 -7.5 1.710938 -7.398438 1.640625 -7.203125 C 1.617188 -7.160156 1.609375 -7.109375 1.609375 -7.046875 C 1.609375 -6.992188 1.632812 -6.925781 1.6875 -6.84375 L 4.078125 -1.21875 L 6.296875 -6.953125 C 6.316406 -7.035156 6.328125 -7.117188 6.328125 -7.203125 C 6.328125 -7.285156 6.289062 -7.375 6.21875 -7.46875 C 6.144531 -7.5625 6.03125 -7.601562 5.875 -7.59375 L 5.78125 -7.59375 L 5.765625 -7.703125 L 7.9375 -7.75 Z M 7.953125 -7.640625 "/></g></g></g><g fill="#000000" fill-opacity="1"><g transform="translate(200.81106, 269.744087)"><g><path d="M 7.5 -1.90625 L 7.578125 -1.9375 L 7.609375 -1.828125 L 5.25 -1.265625 L 5.21875 -1.375 L 5.3125 -1.390625 C 5.457031 -1.421875 5.554688 -1.492188 5.609375 -1.609375 C 5.671875 -1.722656 5.691406 -1.820312 5.671875 -1.90625 C 5.648438 -1.988281 5.613281 -2.070312 5.5625 -2.15625 L 4.46875 -3.765625 L 1.625 -3.078125 L 1.34375 -1.140625 C 1.332031 -1.046875 1.335938 -0.957031 1.359375 -0.875 C 1.378906 -0.789062 1.4375 -0.707031 1.53125 -0.625 C 1.625 -0.550781 1.75 -0.535156 1.90625 -0.578125 L 1.984375 -0.59375 L 2.015625 -0.484375 L -0.09375 0.015625 L -0.125 -0.09375 L -0.03125 -0.109375 C 0.15625 -0.148438 0.316406 -0.242188 0.453125 -0.390625 C 0.597656 -0.546875 0.691406 -0.75 0.734375 -1 L 1.78125 -7.21875 C 1.894531 -7.851562 1.929688 -8.242188 1.890625 -8.390625 L 1.984375 -8.40625 L 6.421875 -2.359375 C 6.578125 -2.160156 6.75 -2.023438 6.9375 -1.953125 C 7.132812 -1.878906 7.320312 -1.863281 7.5 -1.90625 Z M 1.671875 -3.4375 L 4.265625 -4.0625 L 2.1875 -7.140625 Z M 1.671875 -3.4375 "/></g></g></g><g fill="#000000" fill-opacity="1"><g transform="translate(216.555335, 265.029403)"><g><path d="M -0.5 -7.78125 L -1.109375 -7.484375 L 1.640625 -1.65625 C 1.722656 -1.488281 1.847656 -1.367188 2.015625 -1.296875 C 2.191406 -1.222656 2.367188 -1.234375 2.546875 -1.328125 L 2.671875 -1.375 L 2.734375 -1.28125 L 0.59375 -0.28125 L 0.546875 -0.375 L 0.671875 -0.4375 C 0.835938 -0.507812 0.953125 -0.632812 1.015625 -0.8125 C 1.078125 -0.988281 1.078125 -1.164062 1.015625 -1.34375 L -1.546875 -6.765625 C -1.640625 -6.929688 -1.773438 -7.039062 -1.953125 -7.09375 C -2.128906 -7.15625 -2.300781 -7.148438 -2.46875 -7.078125 L -2.59375 -7.015625 L -2.640625 -7.125 L -0.015625 -8.359375 C 0.578125 -8.640625 1.117188 -8.695312 1.609375 -8.53125 C 2.109375 -8.363281 2.484375 -8.015625 2.734375 -7.484375 C 2.984375 -6.960938 3.035156 -6.4375 2.890625 -5.90625 C 2.753906 -5.375 2.453125 -5 1.984375 -4.78125 C 2.097656 -4.769531 2.253906 -4.726562 2.453125 -4.65625 C 2.648438 -4.59375 2.835938 -4.515625 3.015625 -4.421875 C 3.953125 -3.890625 4.550781 -3.566406 4.8125 -3.453125 C 5.070312 -3.347656 5.25 -3.28125 5.34375 -3.25 C 5.445312 -3.21875 5.554688 -3.1875 5.671875 -3.15625 C 5.785156 -3.132812 5.898438 -3.125 6.015625 -3.125 C 6.242188 -3.113281 6.460938 -3.160156 6.671875 -3.265625 L 6.71875 -3.171875 L 6.1875 -2.921875 C 5.90625 -2.785156 5.617188 -2.707031 5.328125 -2.6875 C 5.046875 -2.675781 4.816406 -2.695312 4.640625 -2.75 C 4.460938 -2.800781 4.304688 -2.859375 4.171875 -2.921875 C 4.046875 -2.992188 3.644531 -3.21875 2.96875 -3.59375 C 2.300781 -3.976562 1.914062 -4.195312 1.8125 -4.25 C 1.707031 -4.300781 1.601562 -4.347656 1.5 -4.390625 C 1.1875 -4.515625 0.925781 -4.53125 0.71875 -4.4375 L 0.671875 -4.546875 C 0.722656 -4.554688 0.789062 -4.578125 0.875 -4.609375 C 0.957031 -4.648438 1.0625 -4.707031 1.1875 -4.78125 C 1.988281 -5.175781 2.335938 -5.753906 2.234375 -6.515625 C 2.203125 -6.648438 2.160156 -6.773438 2.109375 -6.890625 C 2.054688 -7.015625 2.023438 -7.09375 2.015625 -7.125 C 1.796875 -7.539062 1.515625 -7.832031 1.171875 -8 C 0.835938 -8.175781 0.484375 -8.191406 0.109375 -8.046875 C -0.0546875 -7.972656 -0.257812 -7.882812 -0.5 -7.78125 Z M -0.5 -7.78125 "/></g></g></g><g fill="#000000" fill-opacity="1"><g transform="translate(230.599923, 257.369963)"><g><path d="M 0.265625 -0.75 C 0.191406 -0.820312 0.0703125 -0.972656 -0.09375 -1.203125 C -0.269531 -1.429688 -0.410156 -1.710938 -0.515625 -2.046875 L -0.4375 -2.109375 C -0.394531 -2.023438 -0.347656 -1.953125 -0.296875 -1.890625 C -0.046875 -1.535156 0.269531 -1.316406 0.65625 -1.234375 C 1.050781 -1.160156 1.425781 -1.253906 1.78125 -1.515625 C 2.15625 -1.785156 2.375 -2.117188 2.4375 -2.515625 C 2.507812 -2.910156 2.425781 -3.269531 2.1875 -3.59375 C 1.945312 -3.925781 1.632812 -4.117188 1.25 -4.171875 L -1.5625 -4.484375 C -2.082031 -4.554688 -2.492188 -4.796875 -2.796875 -5.203125 C -3.097656 -5.617188 -3.21875 -6.078125 -3.15625 -6.578125 C -3.09375 -7.078125 -2.820312 -7.5 -2.34375 -7.84375 C -2.125 -8 -1.859375 -8.144531 -1.546875 -8.28125 L -1.203125 -8.53125 L -0.421875 -7.46875 L -0.5 -7.421875 C -0.707031 -7.691406 -0.960938 -7.835938 -1.265625 -7.859375 C -1.566406 -7.878906 -1.867188 -7.78125 -2.171875 -7.5625 C -2.472656 -7.34375 -2.648438 -7.0625 -2.703125 -6.71875 C -2.753906 -6.382812 -2.671875 -6.070312 -2.453125 -5.78125 C -2.242188 -5.488281 -1.945312 -5.316406 -1.5625 -5.265625 L 1.34375 -4.921875 C 1.820312 -4.859375 2.226562 -4.59375 2.5625 -4.125 C 2.894531 -3.664062 3.023438 -3.175781 2.953125 -2.65625 C 2.890625 -2.144531 2.609375 -1.707031 2.109375 -1.34375 C 1.847656 -1.15625 1.546875 -0.992188 1.203125 -0.859375 C 0.859375 -0.734375 0.546875 -0.695312 0.265625 -0.75 Z M 0.265625 -0.75 "/></g></g></g><g fill="#000000" fill-opacity="1"><g transform="translate(132.537006, 196.507514)"><g><path d="M 5.734375 -35.375 C 7.816406 -36.238281 9.820312 -36.671875 11.75 -36.671875 C 13.363281 -36.671875 15.019531 -36.078125 16.71875 -34.890625 C 17.644531 -34.242188 18.691406 -32.988281 19.859375 -31.125 C 20.628906 -29.84375 21.609375 -27.515625 22.796875 -24.140625 L 28.671875 -7.46875 C 30.015625 -3.738281 31.382812 -0.773438 32.78125 1.421875 C 34.1875 3.617188 35.46875 5.269531 36.625 6.375 C 37.78125 7.488281 38.984375 8.269531 40.234375 8.71875 C 41.484375 9.164062 42.519531 9.390625 43.34375 9.390625 C 44.164062 9.390625 44.894531 9.328125 45.53125 9.203125 L 45.578125 9.6875 C 44.035156 10.195312 42.523438 10.453125 41.046875 10.453125 C 39.578125 10.453125 38.101562 10.070312 36.625 9.3125 C 35.144531 8.5625 33.765625 7.515625 32.484375 6.171875 C 29.710938 3.367188 27.363281 -0.890625 25.4375 -6.609375 L 23.5625 -12.09375 L 10.359375 -12.09375 L 7.03125 -3.515625 C 6.875 -3.128906 6.796875 -2.742188 6.796875 -2.359375 C 6.796875 -1.972656 6.960938 -1.5625 7.296875 -1.125 C 7.640625 -0.695312 8.160156 -0.484375 8.859375 -0.484375 L 9.25 -0.484375 L 9.25 0 L -0.4375 0 L -0.4375 -0.484375 L 0 -0.484375 C 0.769531 -0.484375 1.523438 -0.710938 2.265625 -1.171875 C 3.003906 -1.640625 3.613281 -2.34375 4.09375 -3.28125 L 16.046875 -31.90625 C 14.304688 -34.375 12.15625 -35.609375 9.59375 -35.609375 C 8.4375 -35.609375 7.195312 -35.367188 5.875 -34.890625 Z M 10.890625 -13.546875 L 23.078125 -13.546875 L 19.28125 -24.765625 C 18.539062 -26.921875 17.863281 -28.609375 17.25 -29.828125 Z M 10.890625 -13.546875 "/></g></g></g><path stroke-linecap="butt" transform="matrix(-0.00484773, 0.748314, -0.749984, -0.00485856, 187.120641, 153.273916)" fill="none" stroke-linejoin="miter" d="M -0.000643778 -0.000599502 L 77.1833 0.000510788 " stroke="#000000" stroke-width="1" stroke-opacity="1" stroke-miterlimit="4"/><g fill="#000000" fill-opacity="1"><g transform="translate(198.768185, 196.087751)"><g><path d="M -4.8125 -26.703125 C -3.882812 -29.429688 -2.328125 -31.304688 -0.140625 -32.328125 C 2.035156 -33.359375 5.90625 -33.875 11.46875 -33.875 C 12.625 -33.875 15.546875 -33.828125 20.234375 -33.734375 C 23.640625 -33.640625 26.644531 -32.898438 29.25 -31.515625 C 31.851562 -30.128906 33.882812 -28.175781 35.34375 -25.65625 C 36.800781 -23.132812 37.53125 -20.203125 37.53125 -16.859375 C 37.53125 -11.816406 35.929688 -7.742188 32.734375 -4.640625 C 29.546875 -1.546875 25.378906 0 20.234375 0 L 3.90625 0 L 3.953125 -0.484375 L 4.53125 -0.484375 C 5.332031 -0.484375 6.019531 -0.75 6.59375 -1.28125 C 7.175781 -1.8125 7.515625 -2.460938 7.609375 -3.234375 L 7.609375 -32.28125 C 3.597656 -32.1875 0.753906 -31.5625 -0.921875 -30.40625 C -1.785156 -29.789062 -2.441406 -29.203125 -2.890625 -28.640625 C -3.335938 -28.078125 -3.800781 -27.363281 -4.28125 -26.5 Z M 10.75 -32.28125 L 10.75 -1.453125 L 20.234375 -1.453125 C 24.316406 -1.453125 27.617188 -2.863281 30.140625 -5.6875 C 32.660156 -8.507812 33.921875 -12.234375 33.921875 -16.859375 C 33.921875 -19.910156 33.347656 -22.601562 32.203125 -24.9375 C 31.066406 -27.269531 29.460938 -29.078125 27.390625 -30.359375 C 25.316406 -31.640625 22.929688 -32.28125 20.234375 -32.28125 Z M 10.75 -32.28125 "/></g></g></g></svg>